<svg xmlns="http://www.w3.org/2000/svg" viewBox="0 0 555.86 149.15"><defs><style>.a{fill:#d70545;}.b{fill:#52526f;}</style></defs><title>logo-v2</title><path class="a" d="M284,381s6.84-105.53,6.63-108.43-1.24-5-3.93-5.17-5.79-.62-7.24,4.34-18,72.59-18,72.59-2.07,2.69-1.86-.21,2.07-70.93,2.07-70.93a3.34,3.34,0,0,0-3.72-2.27c-3.1.21-3.93.62-5,2.69S228,375,228,375s-4,11,1,12,7-11,7-11l16-70,1,53s0,4,3,5,6-5,6-5l19-60s-4,91-4,92,0,9,3,10,7,1,7-4a60.62,60.62,0,0,0-1-13C285.46,381.14,284,381,284,381Z" transform="translate(-226.49 -267.29)"/><path class="a" d="M315.69,336.89c-12.39-1.91-15.73,1.43-18.83,5.24s-6.2,12.87-6.43,26.69c0,0-.48,22.16,16,22.16s19.78-15.25,19.78-15.25S328.09,338.8,315.69,336.89Zm3.57,35.27c0,4.77-7.15,11.68-12.63,11.68s-8.58-10-8.58-10-.24-10.49,0-12.39a46.47,46.47,0,0,1,3.1-10,11.14,11.14,0,0,1,9.53-6.91c2.86,0,4.29,2.14,6.67,6.91S319.27,367.39,319.27,372.16Z" transform="translate(-226.49 -267.29)"/><path class="a" d="M344.68,338.32c-.19,4.1-2.8,38.41-2.8,38.41s-2.8,4.66-3.17-3.92-1.31-26.66-1.31-26.66-1.12-4.1-3.92-4.1-3.17,4.85-3.17,4.85-.93,22.75,4.85,38.23c4.71,12.6,7.55,11.06,8.58,9.32,4.29-7.27,9.32-34.31,9.32-53.89S344.87,334.21,344.68,338.32Z" transform="translate(-226.49 -267.29)"/><path class="a" d="M379.43,380.28s-3.16,9.24-10.6,9-11-3.16-11-8.57.23-8.57.23-8.57,3.16,6.09,7.67,2.93,13.53-8.12,14.43-15.78,3.16-16.46-4.51-17.36-13.53,3.16-17.36,9.24-6.76,10.37-7.44,16.46-1.35,18.94,3.16,23.45,5.19,5.64,12,5.86,15.11-2,15.78-8.34S383.49,378.48,379.43,380.28Zm-7.67-30c4.74,2.71-.68,10.15-4.06,13.08s-5.19,2.71-5.64,2C360.19,362.58,367,347.59,371.77,350.29Z" transform="translate(-226.49 -267.29)"/><path class="b" d="M495.34,387.85c-2.77,1.39-7.16,7.39-15.94,7.39,0,0-6.24,1.15-6.24-2.31s-.69-13.63-.69-13.63l22.86.92a2.47,2.47,0,0,0,2.77-2.54,4.12,4.12,0,0,0-2.77-3.7l-21.25-.92s1.39-14.55,2.08-17.32,1.39-3.23,1.39-3.23L509,351.13S511,349,511,347.89s1.15-2.77-4.39-2.77-24.48.92-24.48.92-.46-6.47-3.7-5.77-4.16,4.85-4.16,4.85L473.4,347s-5.31.23-5.54,2.54-2.08,39-2.08,39a23,23,0,0,0,.36,4.89A49.54,49.54,0,0,0,460,381.32c-3.54-5.12-33.45-30.69-38.56-39.35s-2-23.22,3.54-36.59,24-21.25,37-24.4,15.35,1.18,15.35,1.18,5.9-7.08-16.13-8.66-40.14,20.85-48.79,46,10.62,38.17,17.31,43.28,25.58,19.28,29.51,34.23-15,10.23-27.94,4.72-18.1-21.25-17.71-30.69,10.23-7.48,10.23-7.48c2,0,1.66-1.79.57-3.42s-4.9-.91-4.9-.91-10.23-.39-13.77,15.74,21.25,34.63,35,39.74,23.22-2.36,26-9.84a15.72,15.72,0,0,0,.16-8.79c1,2.6,2.84,4.88,6.29,4.88,8.08,0,26.33-2.31,27.95-3.93s3.23-5.31,1.39-7.39S498.11,386.46,495.34,387.85Z" transform="translate(-226.49 -267.29)"/><path class="b" d="M532.92,336.28c-4.74,1-10.15,4.74-13.53,11.84s-7.44,23-7.44,23h-4.06a3,3,0,0,0-2,2.71c0,2,1.35,4.06,4.4,4.06,0,0-2.37,15.22,0,16.57s6.43,3.38,6.43-.34V377.88l14.88.34s-2.37,11.5-2,13.53,6.77,8.79,8.46-.34,5.07-36.87,3-44.31S537.65,335.26,532.92,336.28Zm-.08,35.29-13.31-.18c.35-8.76,9.63-24.52,11.21-26.1s2.45-.53,3,3S532.84,371.56,532.84,371.56Z" transform="translate(-226.49 -267.29)"/><path class="b" d="M590.37,349.32a22.06,22.06,0,0,1,.21-3.17h3c2.1,0,3.33-.88,3.33-3.33s-2.63-2.8-2.63-2.8h-.71a6.73,6.73,0,0,1,4.28-1.34c6.89,0,5.32,2.5,5.32,2.5s1.57,2.19,3.13,1.88,3.44-4.7,1.25-8.14-5.32-5.64-11.27-4.38-11.9,5.64-13.15,8.45l-.36.8L544.4,339a3.3,3.3,0,0,0-3.15,3.33c0,3.15,2.1,3.5,2.1,3.5l14.89.18s-2.8,37.83-3,43.44.18,6.83,3,7a3.21,3.21,0,0,0,3.33-2.63s.18-7.88,1.05-20.84,2.28-27,2.28-27l15.67.1a8,8,0,0,0,.73,5.74c2.5,4.07,15,13.46,17.22,18.47s5.64,11,0,12.21-11.27-2.5-13.78-6.58-4.7-7.83-7.2-5.95.31,8.77.31,8.77S584.11,391,592.56,391s14.72-.63,15.65-8.14.94-13.46-5-19.41S590.37,352.77,590.37,349.32Z" transform="translate(-226.49 -267.29)"/><circle class="b" cx="407.66" cy="120.58" r="4.55"/><path class="b" d="M703,379.92c-13.63,11.2-23.66,4.67-23.66,4.67-11.21-8.09-.56-28.48,9.34-44.51s28.86-21.58,28.86-21.58,1.89,5.66,3.77,5.66,2.83-2.83,1.41-8-8-3.3-19.33,1.41-31.11,30.64-36.3,47.14,4.24,26.4,17.44,28.75,22.15-11.31,22.15-11.31S707.38,376.34,703,379.92Z" transform="translate(-226.49 -267.29)"/><path class="b" d="M726.67,359.84c-4.2-.62-7.31.78-11.36,3.58s-4.67,12.14-4.36,19.77,9.34,9,13.85,10c3.08.64,1.71-4.2,1.71-4.2s-5.91-1.25-8.25-4.2-2.65-8.09.62-13.54,8.56-3.42,11.67.78.16,12.76.16,12.76c-.78,7.78,3.27,3.27,5.14,2.8s1.56-17.43.78-20.54S730.88,360.46,726.67,359.84Z" transform="translate(-226.49 -267.29)"/><path class="b" d="M774.06,354.64c-5.72.57-11.15,12.29-11.15,12.29l-3.14,12s-.86.86-.86-2.29.29-10.86.29-10.86.57-5.43-4.86-5.14S744,376.07,743.47,381.79s-.86,13.72-.86,13.72-.29,3.14,2,3.14,3.43-.57,3.43-2.57c0,0,2.57-21.44,4-19.72s0,10,2,12.29,6.29,4.29,7.72,0,8.29-20,8.29-20,4.57-9.15,4.29-.29,0,21.72,0,21.72-1.14,7.15,2.29,7.15,4.86-1.43,4.86-7.15.86-24.29.86-24.29S779.77,354.07,774.06,354.64Z" transform="translate(-226.49 -267.29)"/></svg>