<svg xmlns="http://www.w3.org/2000/svg" viewBox="0 0 338.73 309.37"><defs><style>.a{fill:#ff6176;}.b{fill:#fff;}</style></defs><title>Untitled-1</title><path class="a" d="M662.36,395.93c-1.82,3.23-8.57,12.58-15.51,13.12-5.29.41-10.69-4.92-14.29-9.48-19.09-24.13-13.56-50.82-9.52-70.3.76-3.67,1.48-7.13,1.95-10.25a62.05,62.05,0,0,0-4.7-34.09c-4.76-10.44-12-17.62-20.81-20.73a13.37,13.37,0,1,0-1.63,23.63c5.14,6.15,8.19,17.55,6.6,28.1-.38,2.54-1,5.59-1.75,9.12-4.32,20.82-11.55,55.67,13.57,87.42,7.9,10,16.47,15.7,25.56,17.07a29.24,29.24,0,0,0,6.78.22c19.18-1.59,30.69-21.49,31.93-23.75Z" transform="translate(-514.15 -230.24)"/><path class="a" d="M708.36,363.93c-1.82,3.23-8.57,12.58-15.51,13.12-5.29.41-10.69-4.92-14.29-9.48-19.09-24.13-13.56-50.82-9.52-70.3.76-3.67,1.48-7.13,1.95-10.25a62.05,62.05,0,0,0-4.7-34.09c-4.76-10.44-12-17.62-20.81-20.73a13.37,13.37,0,1,0-1.63,23.63c5.14,6.15,8.19,17.55,6.6,28.1-.38,2.54-1,5.59-1.75,9.12-4.32,20.82-11.55,55.67,13.57,87.42,7.9,10,16.47,15.7,25.56,17.07a29.24,29.24,0,0,0,6.78.22c19.18-1.59,30.69-21.49,31.93-23.75Z" transform="translate(-514.15 -230.24)"/><path class="a" d="M704.32,399.45c1.82,3.23,8.57,12.58,15.51,13.12,5.29.41,10.69-4.92,14.29-9.48,19.09-24.13,13.56-50.82,9.52-70.3-.76-3.67-1.48-7.13-1.95-10.25a62.05,62.05,0,0,1,4.7-34.09c4.76-10.44,12-17.62,20.81-20.73a13.37,13.37,0,1,1,1.63,23.63c-5.14,6.15-8.19,17.55-6.6,28.1.38,2.54,1,5.59,1.75,9.12,4.32,20.82,11.55,55.67-13.57,87.42-7.9,10-16.47,15.7-25.56,17.07a29.24,29.24,0,0,1-6.78.22c-19.18-1.59-30.69-21.49-31.93-23.75Z" transform="translate(-514.15 -230.24)"/><path class="a" d="M664.32,367.45c1.82,3.23,8.57,12.58,15.51,13.12,5.29.41,10.69-4.92,14.29-9.48,19.09-24.13,13.56-50.82,9.52-70.3-.76-3.67-1.48-7.13-1.95-10.25a62.05,62.05,0,0,1,4.7-34.09c4.76-10.44,12-17.62,20.81-20.73a13.37,13.37,0,1,1,1.63,23.63c-5.14,6.15-8.19,17.55-6.6,28.1.38,2.54,1,5.59,1.75,9.12,4.32,20.82,11.55,55.67-13.57,87.42-7.9,10-16.47,15.7-25.56,17.07a29.24,29.24,0,0,1-6.78.22c-19.18-1.59-30.69-21.49-31.93-23.75Z" transform="translate(-514.15 -230.24)"/><circle class="a" cx="169.62" cy="144.81" r="93.94"/><circle class="a" cx="172.17" cy="207.43" r="60.71"/><path class="a" d="M777.71,375a93.94,93.94,0,1,0-150.88,74.71,60.7,60.7,0,0,0,119.77-4.87A93.69,93.69,0,0,0,777.71,375Z" transform="translate(-514.15 -230.24)"/><path class="a" d="M643.74,444.87c-1.7,4.47-8.53,17.7-17.28,19.73-6.67,1.54-14.6-4.23-20.07-9.35-29-27.14-27.08-62.28-25.66-87.93.27-4.83.52-9.39.52-13.46a80.12,80.12,0,0,0-12.56-42.63c-8.08-12.42-18.75-20.19-30.56-22.47a17.26,17.26,0,1,0,2.45,30.48c7.74,6.86,13.82,20.83,13.82,34.61,0,3.32-.22,7.33-.48,12-1.51,27.42-4,73.3,34.13,109,12,11.23,24.05,16.89,35.92,16.89a37.76,37.76,0,0,0,8.7-1c24.18-5.71,35.05-33.33,36.21-36.46Z" transform="translate(-514.15 -230.24)"/><path class="a" d="M723.3,438.87c1.7,4.47,8.53,17.7,17.28,19.73,6.67,1.54,14.6-4.23,20.07-9.35,29-27.14,27.08-62.28,25.66-87.93-.27-4.83-.52-9.39-.52-13.46a80.12,80.12,0,0,1,12.56-42.63c8.08-12.42,18.75-20.19,30.56-22.47a17.26,17.26,0,1,1-2.45,30.48c-7.74,6.86-13.82,20.83-13.82,34.61,0,3.32.22,7.33.48,12,1.51,27.42,4,73.3-34.13,109-12,11.23-24.05,16.89-35.92,16.89a37.76,37.76,0,0,1-8.7-1c-24.18-5.71-35.05-33.33-36.21-36.46Z" transform="translate(-514.15 -230.24)"/><path class="a" d="M751.23,360a14.61,14.61,0,0,0-8.82,3c-8.48,3.89-23.34,16.33-28.05,39.89-1.84,9.2-1.51,25-1.13,43.35.34,16.5.73,35.21-.55,50.17-1.68,19.7-5.53,23.56-6.12,24a9,9,0,0,1-7.06-2.51c-6.74-6.38-8.31-22.44-8.33-27.56l-9.59,0H672c0,2.85.4,28.22,14.27,41.42A28,28,0,0,0,706,539.61q.8,0,1.62,0c26.69-1.33,25.72-48.31,24.77-93.75-.34-16.48-.67-32.05.76-39.19,1.9-9.5,5.85-15.88,9.53-20A14.69,14.69,0,1,0,751.23,360Z" transform="translate(-514.15 -230.24)"/><circle class="b" cx="133.19" cy="123.72" r="14.06"/><path class="b" d="M765.93,374.72A14.68,14.68,0,0,0,742.4,363c-8.48,3.89-23.34,16.33-28.05,39.89-1.84,9.2-1.51,25-1.13,43.35.31,15,.66,31.82-.24,46a60.9,60.9,0,0,0,19.73-15.4c.12-10-.1-20.55-.32-31-.34-16.48-.67-32.05.76-39.19,1.9-9.5,5.85-15.88,9.53-20a14.68,14.68,0,0,0,23.25-11.94Z" transform="translate(-514.15 -230.24)"/><circle class="b" cx="191.98" cy="122.44" r="12.78"/></svg>